<svg width="26" height="26" viewBox="0 0 26 26" fill="none" xmlns="http://www.w3.org/2000/svg">
<path d="M20.8621 8.71931V17.2963M16.7241 13.0078H25M14.2414 6.14285C14.2414 8.98342 12.0185 11.2857 9.27586 11.2857C6.53324 11.2857 4.31034 8.98342 4.31034 6.14285C4.31034 3.30228 6.53324 1 9.27586 1C12.0185 1 14.2414 3.30228 14.2414 6.14285ZM17.5517 25L1 25C1 23.782 1 22.6232 1 21.5739C1 18.7317 3.22314 16.4286 5.96551 16.4286L12.5862 16.4286C15.3286 16.4286 17.5517 18.7317 17.5517 21.5739C17.5517 22.6232 17.5517 23.782 17.5517 25Z" stroke="#8B8B8B" stroke-width="1.5" stroke-linecap="round" stroke-linejoin="round"/>
</svg>
