<svg width="21" height="21" viewBox="0 0 21 21" fill="none" xmlns="http://www.w3.org/2000/svg">
<path d="M4.54125 5.58251C4.375 5.58251 4.2 5.51251 4.0775 5.39001C3.82375 5.13626 3.82375 4.71626 4.0775 4.46251L7.25375 1.28626C7.5075 1.03251 7.9275 1.03251 8.18125 1.28626C8.435 1.54001 8.435 1.96001 8.18125 2.21376L5.005 5.39001C4.87375 5.51251 4.7075 5.58251 4.54125 5.58251Z" fill="white"/>
<path d="M16.4587 5.58251C16.2925 5.58251 16.1262 5.52126 15.995 5.39001L12.8187 2.21376C12.565 1.96001 12.565 1.54001 12.8187 1.28626C13.0725 1.03251 13.4925 1.03251 13.7462 1.28626L16.9225 4.46251C17.1762 4.71626 17.1762 5.13626 16.9225 5.39001C16.8 5.51251 16.625 5.58251 16.4587 5.58251Z" fill="white"/>
<path d="M17.6838 9.2749C17.6225 9.2749 17.5613 9.2749 17.5 9.2749H17.2987H3.5C2.8875 9.28365 2.1875 9.28365 1.68 8.77615C1.2775 8.3824 1.09375 7.7699 1.09375 6.86865C1.09375 4.4624 2.8525 4.4624 3.6925 4.4624H17.3075C18.1475 4.4624 19.9062 4.4624 19.9062 6.86865C19.9062 7.77865 19.7225 8.3824 19.32 8.77615C18.865 9.23115 18.2525 9.2749 17.6838 9.2749ZM3.6925 7.9624H17.5088C17.9025 7.97115 18.27 7.97115 18.3925 7.84865C18.4538 7.7874 18.585 7.5774 18.585 6.86865C18.585 5.8799 18.34 5.7749 17.2987 5.7749H3.6925C2.65125 5.7749 2.40625 5.8799 2.40625 6.86865C2.40625 7.5774 2.54625 7.7874 2.59875 7.84865C2.72125 7.9624 3.0975 7.9624 3.4825 7.9624H3.6925Z" fill="white"/>
<path d="M8.54 16.0125C8.18125 16.0125 7.88375 15.715 7.88375 15.3562V12.25C7.88375 11.8912 8.18125 11.5938 8.54 11.5938C8.89875 11.5938 9.19625 11.8912 9.19625 12.25V15.3562C9.19625 15.7237 8.89875 16.0125 8.54 16.0125Z" fill="white"/>
<path d="M12.565 16.0125C12.2063 16.0125 11.9088 15.715 11.9088 15.3562V12.25C11.9088 11.8912 12.2063 11.5938 12.565 11.5938C12.9238 11.5938 13.2213 11.8912 13.2213 12.25V15.3562C13.2213 15.7237 12.9238 16.0125 12.565 16.0125Z" fill="white"/>
<path d="M13.0288 19.9062H7.7525C4.62 19.9062 3.92 18.0424 3.64875 16.4237L2.415 8.85491C2.35375 8.49616 2.59875 8.16366 2.9575 8.10241C3.31625 8.04116 3.64875 8.28616 3.71 8.64491L4.94375 16.2049C5.1975 17.7537 5.7225 18.5937 7.7525 18.5937H13.0288C15.2775 18.5937 15.5312 17.8062 15.82 16.2837L17.29 8.62741C17.36 8.26866 17.7012 8.03241 18.06 8.11116C18.4187 8.18116 18.6462 8.52241 18.5762 8.88116L17.1062 16.5374C16.765 18.3137 16.1962 19.9062 13.0288 19.9062Z" fill="white"/>
</svg>
