<svg width="21" height="20" viewBox="0 0 21 20" fill="none" xmlns="http://www.w3.org/2000/svg">
<path d="M16.6417 8.3335H3.30835V15.0002C3.30835 17.5002 4.14168 18.3335 6.64168 18.3335H13.3084C15.8084 18.3335 16.6417 17.5002 16.6417 15.0002V8.3335Z" stroke="#1B3F67" stroke-width="1.5" stroke-miterlimit="10" stroke-linecap="round" stroke-linejoin="round"/>
<path d="M17.9166 5.83317V6.6665C17.9166 7.58317 17.475 8.33317 16.25 8.33317H3.74998C2.47498 8.33317 2.08331 7.58317 2.08331 6.6665V5.83317C2.08331 4.9165 2.47498 4.1665 3.74998 4.1665H16.25C17.475 4.1665 17.9166 4.9165 17.9166 5.83317Z" stroke="#1B3F67" stroke-width="1.5" stroke-miterlimit="10" stroke-linecap="round" stroke-linejoin="round"/>
<path d="M9.69998 4.16686H5.09998C4.81665 3.85853 4.82498 3.38353 5.12498 3.08353L6.30832 1.9002C6.61665 1.59186 7.12498 1.59186 7.43332 1.9002L9.69998 4.16686Z" stroke="#1B3F67" stroke-width="1.5" stroke-miterlimit="10" stroke-linecap="round" stroke-linejoin="round"/>
<path d="M14.8917 4.16686H10.2917L12.5584 1.9002C12.8667 1.59186 13.375 1.59186 13.6834 1.9002L14.8667 3.08353C15.1667 3.38353 15.175 3.85853 14.8917 4.16686Z" stroke="#1B3F67" stroke-width="1.5" stroke-miterlimit="10" stroke-linecap="round" stroke-linejoin="round"/>
<path d="M7.45001 8.3335V12.6168C7.45001 13.2835 8.18335 13.6752 8.74168 13.3168L9.52501 12.8002C9.80835 12.6168 10.1667 12.6168 10.4417 12.8002L11.1833 13.3002C11.7333 13.6668 12.475 13.2752 12.475 12.6085V8.3335H7.45001Z" stroke="#1B3F67" stroke-width="1.5" stroke-miterlimit="10" stroke-linecap="round" stroke-linejoin="round"/>
<circle cx="17.5" cy="3.5" r="3" fill="#FF5050" stroke="white"/>
</svg>
