<svg width="8" height="10" viewBox="0 0 8 10" fill="none" xmlns="http://www.w3.org/2000/svg">
<path d="M4.18965 0.137207C3.45431 0.137207 2.73548 0.412075 2.12406 0.927051C1.51264 1.44203 1.0361 2.17398 0.754695 3.03036C0.473291 3.88673 0.399662 4.82906 0.543121 5.73819C0.68658 6.64731 1.04068 7.48239 1.56065 8.13783C2.08062 8.79327 2.7431 9.23963 3.46431 9.42047C4.18553 9.6013 4.93309 9.50849 5.61246 9.15377C6.29183 8.79905 6.8725 8.19835 7.28103 7.42763C7.68957 6.65691 7.90762 5.7508 7.90762 4.82386C7.90606 3.58149 7.51384 2.39057 6.81692 1.51208C6.12001 0.633588 5.17524 0.139182 4.18965 0.137207V0.137207ZM3.47449 1.81536L3.64799 1.87723V1.58918L3.7157 1.50917L3.78849 1.68627L3.92644 1.89964L3.87058 1.99672L3.64799 2.06073V1.88684L3.47449 2.05753L3.42371 1.96045L3.47449 1.81536ZM0.796676 4.71931C0.812716 3.84396 1.04299 2.99625 1.45597 2.29224C1.46374 2.29345 1.47139 2.2956 1.47883 2.29864C1.47883 2.36265 1.40943 2.37865 1.47883 2.54081C1.56769 2.75418 1.49152 2.847 1.49152 2.847C1.49152 2.847 1.27401 3.0401 1.23762 3.07317C1.20123 3.10624 1.09713 3.28654 1.1606 3.23426C1.22408 3.18199 1.30109 3.13718 1.23762 3.26627C1.17414 3.39536 1.05819 3.60553 1.0328 3.68554C1.00741 3.76555 0.879617 3.95972 0.879617 4.0568C0.861432 4.17956 0.848717 4.30351 0.841532 4.42806C0.841075 4.52782 0.825862 4.62659 0.796676 4.71931ZM2.11866 7.41417L2.06703 7.65527L2.11866 7.84837C2.08301 7.88621 2.04061 7.91257 1.99509 7.92519C1.9477 7.92519 1.93162 7.96253 1.87999 7.94546C1.38236 7.36421 1.03423 6.60842 0.880463 5.77549C0.908194 5.7873 0.93339 5.80702 0.954095 5.8331C0.994764 5.88228 1.04282 5.92073 1.09543 5.94619C1.15891 5.97926 1.18515 6.0262 1.2647 6.07527C1.34426 6.12435 1.31633 6.09234 1.41789 6.23744C1.47256 6.29703 1.51251 6.37516 1.53299 6.46254C1.55721 6.53724 1.58726 6.60871 1.6227 6.67591C1.64809 6.72498 1.72511 6.75699 1.7632 6.789C1.80529 6.82419 1.85347 6.84614 1.90369 6.85301C1.94262 6.85301 2.05772 6.9981 2.1212 7.0141C2.18467 7.0301 2.18552 7.19226 2.18552 7.19226L2.11866 7.41417ZM2.62646 1.18592C2.56648 1.25657 2.50996 1.33174 2.45719 1.41102C2.43079 1.4766 2.39108 1.53218 2.34209 1.57212C2.28953 1.61837 2.24587 1.67889 2.21429 1.74921L2.07296 1.81322L1.95785 1.74921C1.95785 1.74921 1.8546 1.79829 1.86814 1.73321C1.87242 1.71508 1.8775 1.69727 1.88338 1.67987C2.19872 1.31155 2.5666 1.02194 2.96754 0.82639C2.92776 0.890401 2.8829 0.956545 2.8829 0.956545C2.8829 0.956545 2.79742 0.959746 2.63069 1.18592H2.62646ZM6.53486 6.97889C6.52132 7.0429 6.49677 7.15599 6.48408 7.22107C6.46112 7.30729 6.42158 7.38499 6.36898 7.44724C6.33089 7.47924 6.26657 7.57633 6.22848 7.59233C6.1904 7.60833 6.16416 7.47924 6.17686 7.41417C6.19925 7.33184 6.22495 7.25102 6.25387 7.17199C6.25387 7.17199 6.26657 7.07491 6.27926 7.0109C6.29196 6.94689 6.44853 6.86581 6.44853 6.86581L6.5484 6.62363C6.5556 6.6607 6.55985 6.69859 6.5611 6.73672C6.55743 6.81819 6.54866 6.89917 6.53486 6.97889ZM6.57294 5.46184C6.54755 5.50985 6.47054 5.63893 6.43161 5.70295C6.38341 5.79224 6.32654 5.8736 6.26234 5.94512C6.18532 6.0262 6.18532 6.10621 6.14724 6.17129C6.11281 6.23924 6.08281 6.3106 6.05752 6.38466C6.05752 6.38466 6.08291 6.70471 6.09561 6.77192C6.1083 6.83914 6.0059 7.01303 6.0059 7.01303L5.89079 7.15812L5.73676 7.4163L5.74946 7.65741C5.74946 7.65741 5.63351 7.77049 5.56919 7.83557C5.50486 7.90065 5.51587 7.94866 5.46424 8.01373C5.39412 8.09446 5.31372 8.15974 5.22642 8.20683C5.17564 8.22284 4.95813 8.27084 4.95813 8.27084V8.12362L4.88704 7.96253C4.85482 7.87356 4.81807 7.78732 4.77701 7.70435C4.73893 7.64034 4.73893 7.54326 4.6746 7.46218C4.62738 7.40853 4.59036 7.34217 4.56627 7.26801C4.5625 7.20208 4.56707 7.13582 4.57981 7.07171C4.57981 7.07171 4.6289 6.89355 4.65514 6.82954C4.66337 6.79154 4.66522 6.75179 4.66055 6.71284C4.65589 6.67389 4.64482 6.6366 4.62806 6.60336C4.60407 6.51504 4.59122 6.42252 4.58997 6.32918C4.58997 6.28118 4.48672 6.19903 4.44863 6.15102C4.41055 6.10301 4.42324 6.03794 4.42324 5.97392C4.40652 5.86852 4.39774 5.76136 4.39701 5.65387C4.4097 5.54078 4.2819 5.6208 4.20573 5.65387C4.12956 5.68694 4.07794 5.6208 4.07794 5.52371C4.07794 5.42663 3.93744 5.50771 3.84773 5.57172C3.75176 5.61906 3.653 5.65688 3.55236 5.68481C3.52633 5.70017 3.4969 5.70379 3.46901 5.69505C3.44112 5.68631 3.41646 5.66574 3.39917 5.6368C3.3506 5.58439 3.29943 5.53593 3.24598 5.49171C3.17697 5.42931 3.11639 5.3533 3.06656 5.2666C2.9861 5.14006 2.92158 4.99864 2.87529 4.84733C2.86883 4.75577 2.86883 4.66366 2.87529 4.57209C2.87239 4.48571 2.87664 4.39918 2.88798 4.31391C2.90691 4.22243 2.93719 4.1353 2.97769 4.05573C3.04022 3.96977 3.11374 3.89765 3.1952 3.84237C3.23329 3.81036 3.323 3.71328 3.323 3.64927C3.323 3.58525 3.37463 3.55218 3.40002 3.48817C3.42541 3.42416 3.51512 3.26307 3.63107 3.32708C3.67839 3.3202 3.72532 3.30951 3.77156 3.29507C3.83665 3.26705 3.9005 3.23465 3.96283 3.19799C4.02052 3.17259 4.08052 3.15646 4.14141 3.14998C4.18602 3.17329 4.23258 3.19011 4.28021 3.20012C4.3183 3.20012 4.44355 3.17239 4.44355 3.17239C4.46745 3.265 4.48668 3.35942 4.5011 3.4551C4.5011 3.50417 4.53919 3.55218 4.60436 3.58419C4.66953 3.61619 4.96236 3.69727 5.091 3.56819C5.12063 3.53831 5.2188 3.61619 5.2188 3.61619C5.34525 3.64479 5.46934 3.688 5.5895 3.74528C5.64112 3.79436 5.73084 3.82636 5.75877 3.87544C5.80597 3.95215 5.84868 4.03309 5.88656 4.11761C5.9001 4.16562 5.96358 4.34378 5.97712 4.40779C5.99751 4.51374 6.02732 4.61646 6.06599 4.71398C6.10407 4.79506 6.31989 5.14925 6.3986 5.31141L6.62965 5.2634C6.61669 5.33201 6.59767 5.39857 6.57294 5.46184ZM7.50392 4.84947C7.49122 4.78439 7.41421 4.55822 7.41421 4.55822C7.37854 4.49644 7.33542 4.44208 7.28641 4.39713C7.23563 4.36512 7.1967 4.28404 7.10699 4.22003C7.04851 4.16277 6.97775 4.12895 6.90386 4.12295C6.82685 4.12295 6.75068 3.99386 6.66012 3.92878C6.56956 3.8637 6.55771 3.89677 6.55771 3.89677C6.5998 3.97174 6.63421 4.05311 6.66012 4.13895C6.66012 4.18696 6.77522 4.26804 6.89117 4.23603C6.92441 4.31537 6.96292 4.39103 7.00627 4.4622C7.04436 4.51021 6.99358 4.55929 6.91656 4.6233C6.87841 4.64883 6.84359 4.68157 6.81331 4.72038C6.7481 4.78004 6.67966 4.83387 6.60849 4.88147C6.57041 4.91348 6.41637 5.01056 6.3402 4.91348C6.30212 4.86654 6.31396 4.76839 6.28942 4.70011C6.26488 4.63183 5.99489 4.13575 5.86625 3.90958C5.83465 3.83922 5.79596 3.77432 5.75115 3.71648C5.71306 3.6834 5.84086 3.6834 5.84086 3.6834C5.84058 3.61868 5.83605 3.55409 5.82732 3.49031C5.8218 3.42544 5.8264 3.35984 5.84086 3.29721C5.84086 3.29721 5.71306 3.39429 5.67159 3.42629C5.63012 3.4583 5.6005 3.36442 5.54972 3.28334C5.49705 3.20873 5.45779 3.12066 5.43462 3.02516C5.42192 2.94515 5.49894 2.91207 5.49894 2.91207L5.61404 2.83206C5.69023 2.81464 5.76785 2.80926 5.84509 2.81606C5.9348 2.83206 6.0753 2.84806 6.0753 2.84806C6.0753 2.84806 6.11338 2.73498 6.06176 2.68697C6.01013 2.63896 5.89249 2.55788 5.84425 2.57388C5.796 2.58989 5.86964 2.4928 5.93311 2.42879L5.79177 2.39679C5.79177 2.39679 5.66313 2.47787 5.62251 2.49387C5.5614 2.51662 5.50696 2.56151 5.46593 2.62296C5.41515 2.70404 5.48624 2.81606 5.43546 2.84913C5.39551 2.87489 5.35389 2.8963 5.31105 2.91314C5.25794 2.92153 5.20421 2.92153 5.15109 2.91314C5.01906 2.91314 5.1037 3.0657 5.13755 3.11904L5.03515 2.96115L4.95897 2.73498C4.95897 2.73498 4.8498 2.6379 4.79902 2.60589C4.74824 2.57388 4.58997 2.4608 4.58997 2.4608L4.60097 2.60589L4.74908 2.79472H4.76262L4.85318 2.92381L4.69661 2.93981V2.81713C4.43424 2.76805 4.56458 2.71791 4.54681 2.70191L4.41478 2.59095C4.41478 2.59095 4.26074 2.62296 4.22181 2.64003C4.18288 2.6571 4.17103 2.70404 4.09486 2.73711C4.03797 2.75761 3.98894 2.80349 3.95691 2.8662C3.90839 2.95682 3.85495 3.04309 3.79695 3.12438C3.74532 3.18945 3.64969 3.17239 3.61076 3.17239C3.53509 3.15643 3.46021 3.13506 3.38648 3.10837V2.83206C3.39883 2.76606 3.40311 2.69806 3.39917 2.63043L3.51173 2.60696L3.69877 2.55788L3.75379 2.50881L3.83334 2.37758C3.82152 2.36709 3.81149 2.35371 3.80384 2.33825C3.79618 2.32279 3.79106 2.30555 3.78877 2.28756C3.78648 2.26956 3.78708 2.25117 3.79052 2.23347C3.79396 2.21577 3.80017 2.19911 3.8088 2.18449C3.83927 2.13008 3.95014 2.12047 4.00092 2.0714C4.04069 2.03716 4.08397 2.00989 4.12956 1.99032C4.12956 1.99032 4.21927 1.89324 4.30899 1.77695C4.35383 1.74648 4.40087 1.72147 4.44948 1.70227C4.52694 1.7943 4.61207 1.8755 4.70338 1.94445C4.76685 1.91678 4.82717 1.87876 4.8828 1.83136C4.90064 1.76952 4.90925 1.70405 4.90819 1.63826C4.8955 1.59025 4.83118 1.42489 4.83118 1.42489C4.83118 1.42489 4.79309 1.50597 4.75501 1.56998C4.72943 1.61524 4.70786 1.66389 4.69069 1.71507C4.69069 1.71507 4.51126 1.69907 4.49857 1.65106C4.48587 1.60305 4.46217 1.52411 4.44948 1.47823C4.43678 1.43236 4.33438 1.43129 4.25821 1.4633C4.18203 1.4953 4.2709 1.2894 4.2709 1.2894C4.2709 1.2894 4.34792 1.16778 4.3987 1.16778C4.47396 1.14231 4.54753 1.1095 4.61875 1.06963C4.70401 1.0133 4.79291 0.966185 4.8845 0.928807C4.94882 0.928807 5.02584 0.913871 5.06392 0.913871H5.25519L5.52433 0.936275C5.52433 0.936275 5.75538 1.06856 5.67752 1.13364C5.72228 1.17436 5.76523 1.21817 5.80616 1.26486C5.84171 1.31074 5.9348 1.22966 5.98812 1.19125C6.47647 1.57574 6.87936 2.11027 7.15899 2.74471C7.43863 3.37916 7.58585 4.09274 7.58686 4.81853C7.58686 4.90068 7.58094 4.98176 7.57755 5.06284C7.55216 4.98922 7.51661 4.89107 7.5073 4.84947H7.50392Z" fill="#90949C"/>
</svg>
