<svg width="26" height="26" viewBox="0 0 26 26" fill="none" xmlns="http://www.w3.org/2000/svg">
<path d="M6.14622 19.8571H6.89622V19.1071H6.14622V19.8571ZM6.14622 25H5.39622C5.39622 25.284 5.55668 25.5437 5.81071 25.6708C6.06474 25.7978 6.36875 25.7705 6.59604 25.6001L6.14622 25ZM13.0079 19.8571V19.1071H12.758L12.558 19.257L13.0079 19.8571ZM7.86163 7.10713C7.44742 7.10713 7.11163 7.44291 7.11163 7.85713C7.11163 8.27134 7.44742 8.60713 7.86163 8.60713V7.10713ZM18.1541 8.60713C18.5683 8.60713 18.9041 8.27134 18.9041 7.85713C18.9041 7.44291 18.5683 7.10713 18.1541 7.10713V8.60713ZM7.86163 12.25C7.44742 12.25 7.11163 12.5858 7.11163 13C7.11163 13.4142 7.44742 13.75 7.86163 13.75V12.25ZM14.7233 13.75C15.1375 13.75 15.4733 13.4142 15.4733 13C15.4733 12.5858 15.1375 12.25 14.7233 12.25V13.75ZM5.39622 19.8571V25H6.89622V19.8571H5.39622ZM6.59604 25.6001L13.4577 20.4573L12.558 19.257L5.69641 24.3999L6.59604 25.6001ZM13.0079 20.6071H23.3003V19.1071H13.0079V20.6071ZM23.3003 20.6071C24.6627 20.6071 25.7657 19.5056 25.7657 18.1429H24.2657C24.2657 18.6762 23.8352 19.1071 23.3003 19.1071V20.6071ZM25.7657 18.1429V2.71426H24.2657V18.1429H25.7657ZM25.7657 2.71426C25.7657 1.35156 24.6627 0.25 23.3003 0.25V1.75C23.8352 1.75 24.2657 2.18095 24.2657 2.71426H25.7657ZM23.3003 0.25H2.71541V1.75H23.3003V0.25ZM2.71541 0.25C1.35305 0.25 0.25 1.35156 0.25 2.71426H1.75C1.75 2.18095 2.18052 1.75 2.71541 1.75V0.25ZM0.25 2.71426V18.1429H1.75V2.71426H0.25ZM0.25 18.1429C0.25 19.5056 1.35305 20.6071 2.71541 20.6071V19.1071C2.18052 19.1071 1.75 18.6762 1.75 18.1429H0.25ZM2.71541 20.6071H6.14622V19.1071H2.71541V20.6071ZM7.86163 8.60713H18.1541V7.10713H7.86163V8.60713ZM7.86163 13.75H14.7233V12.25H7.86163V13.75Z" fill="#8B8B8B"/>
</svg>
