<svg width="24" height="18" viewBox="0 0 24 18" fill="none" xmlns="http://www.w3.org/2000/svg">
<g clip-path="url(#clip0_250_1746)">
<path d="M0 0H24V6H0V0Z" fill="#FF8718"/>
<path d="M0 6H24V12H0V6Z" fill="#F5F8FB"/>
<path d="M0 12H24V18H0V12Z" fill="#2B9F5A"/>
<path d="M13.5 9C13.5 9.82843 12.8284 10.5 12 10.5C11.1716 10.5 10.5 9.82843 10.5 9C10.5 8.17157 11.1716 7.5 12 7.5C12.8284 7.5 13.5 8.17157 13.5 9Z" fill="#F5F8FB"/>
<path fill-rule="evenodd" clip-rule="evenodd" d="M12 8.25C11.5858 8.25 11.25 8.58579 11.25 9C11.25 9.41421 11.5858 9.75 12 9.75C12.4142 9.75 12.75 9.41421 12.75 9C12.75 8.58579 12.4142 8.25 12 8.25ZM9.75 9C9.75 7.75736 10.7574 6.75 12 6.75C13.2426 6.75 14.25 7.75736 14.25 9C14.25 10.2426 13.2426 11.25 12 11.25C10.7574 11.25 9.75 10.2426 9.75 9Z" fill="#41479B"/>
</g>
<defs>
<clipPath id="clip0_250_1746">
<rect width="24" height="18" rx="2" fill="white"/>
</clipPath>
</defs>
</svg>
