<svg width="24" height="24" viewBox="0 0 24 24" fill="none" xmlns="http://www.w3.org/2000/svg">
<path d="M21.5 12C21.5 17.2467 17.2467 21.5 12 21.5C6.75329 21.5 2.5 17.2467 2.5 12C2.5 6.7533 6.75329 2.5 12 2.5C17.2467 2.5 21.5 6.7533 21.5 12Z" fill="#0F6EFF" stroke="white"/>
<path d="M10.58 15.5801C10.38 15.5801 10.19 15.5001 10.05 15.3601L7.21997 12.5301C6.92997 12.2401 6.92997 11.7601 7.21997 11.4701C7.50997 11.1801 7.98997 11.1801 8.27997 11.4701L10.58 13.7701L15.72 8.6301C16.01 8.3401 16.49 8.3401 16.78 8.6301C17.07 8.9201 17.07 9.4001 16.78 9.6901L11.11 15.3601C10.97 15.5001 10.78 15.5801 10.58 15.5801Z" fill="white"/>
</svg>
