<svg width="22" height="22" viewBox="0 0 22 22" fill="none" xmlns="http://www.w3.org/2000/svg">
<path d="M18.0645 17.6761L15.9265 13.4116L13.7898 17.6761" stroke="#1B3F67" stroke-width="1.5" stroke-linecap="round" stroke-linejoin="round"/>
<path d="M14.1794 16.917H17.6951" stroke="#1B3F67" stroke-width="1.5" stroke-linecap="round" stroke-linejoin="round"/>
<path d="M15.9265 21.0014C14.9231 21.0014 13.9422 20.7039 13.1078 20.1464C12.2735 19.5889 11.6232 18.7965 11.2392 17.8695C10.8552 16.9424 10.7548 15.9223 10.9505 14.9382C11.1463 13.954 11.6295 13.05 12.339 12.3405C13.0485 11.6309 13.9525 11.1477 14.9367 10.952C15.9209 10.7562 16.941 10.8567 17.868 11.2407C18.7951 11.6247 19.5874 12.275 20.1449 13.1093C20.7024 13.9436 20.9999 14.9245 20.9999 15.928C20.9999 17.2735 20.4654 18.564 19.514 19.5154C18.5625 20.4669 17.2721 21.0014 15.9265 21.0014V21.0014Z" stroke="#1B3F67" stroke-width="1.5" stroke-linecap="round" stroke-linejoin="round"/>
<path d="M4.04285 1.02819H7.95721C10.0249 1.02819 11.0243 2.02627 10.9732 4.04415V7.95851C11.05 8.37134 11.0251 8.79667 10.9007 9.19774C10.7763 9.59881 10.5561 9.96357 10.2592 10.2605C9.96227 10.5574 9.59752 10.7776 9.19645 10.902C8.79538 11.0264 8.37005 11.0513 7.95721 10.9745H4.04285C2.02497 11.0154 1.02689 10.016 1.02689 7.94828V4.03393C0.968215 3.62466 1.00586 3.20734 1.13684 2.81518C1.26782 2.42303 1.48852 2.06685 1.78137 1.77499C2.07422 1.48313 2.43114 1.26365 2.82375 1.134C3.21635 1.00435 3.63379 0.968121 4.04285 1.02819V1.02819Z" stroke="#1B3F67" stroke-width="1.5" stroke-linecap="round" stroke-linejoin="round"/>
<path d="M8.02747 4.87354H3.97253" stroke="#1B3F67" stroke-width="1.5" stroke-linecap="round" stroke-linejoin="round"/>
<path d="M5.99048 4.19385V4.87116" stroke="#1B3F67" stroke-width="1.5" stroke-linecap="round" stroke-linejoin="round"/>
<path d="M7.00775 4.86328C7.02248 5.68654 6.71018 6.48206 6.13932 7.07544C5.56846 7.66881 4.78562 8.01164 3.9624 8.02876" stroke="#1B3F67" stroke-width="1.5" stroke-linecap="round" stroke-linejoin="round"/>
<path d="M8.0276 8.02881C7.66191 8.01829 7.30389 7.92146 6.98274 7.74623C6.6616 7.571 6.38643 7.32233 6.17969 7.02051" stroke="#1B3F67" stroke-width="1.5" stroke-linecap="round" stroke-linejoin="round"/>
<path d="M1.02686 14.0107C1.02619 14.9289 1.20654 15.8382 1.5576 16.6866C1.90866 17.5351 2.42354 18.3059 3.07279 18.9552C3.72204 19.6044 4.49292 20.1193 5.34134 20.4704C6.18976 20.8214 7.09906 21.0018 8.01724 21.0011L6.96932 19.2503" stroke="#1B3F67" stroke-width="1.5" stroke-linecap="round" stroke-linejoin="round"/>
<path d="M21 8.0187C21.0007 7.10052 20.8203 6.19122 20.4693 5.34281C20.1182 4.49439 19.6033 3.72351 18.9541 3.07426C18.3048 2.42501 17.534 1.91013 16.6855 1.55906C15.8371 1.208 14.9278 1.02765 14.0096 1.02832L15.0588 2.77656" stroke="#1B3F67" stroke-width="1.5" stroke-linecap="round" stroke-linejoin="round"/>
</svg>
