<svg width="21" height="21" viewBox="0 0 21 21" fill="none" xmlns="http://www.w3.org/2000/svg">
<path d="M18.375 5.23242C15.4613 4.94367 12.53 4.79492 9.6075 4.79492C7.875 4.79492 6.1425 4.88242 4.41 5.05742L2.625 5.23242" stroke="#FC3F3F" stroke-width="1.5" stroke-linecap="round" stroke-linejoin="round"/>
<path d="M7.4375 4.34875L7.63 3.2025C7.77 2.37125 7.875 1.75 9.35375 1.75H11.6463C13.125 1.75 13.2387 2.40625 13.37 3.21125L13.5625 4.34875" stroke="#FC3F3F" stroke-width="1.5" stroke-linecap="round" stroke-linejoin="round"/>
<path d="M16.4937 7.99756L15.925 16.8088C15.8287 18.1826 15.75 19.2501 13.3087 19.2501H7.69122C5.24998 19.2501 5.17123 18.1826 5.07498 16.8088L4.50623 7.99756" stroke="#FC3F3F" stroke-width="1.5" stroke-linecap="round" stroke-linejoin="round"/>
<path d="M9.0387 14.4375H11.9524" stroke="#FC3F3F" stroke-width="1.5" stroke-linecap="round" stroke-linejoin="round"/>
<path d="M8.3125 10.9375H12.6875" stroke="#FC3F3F" stroke-width="1.5" stroke-linecap="round" stroke-linejoin="round"/>
</svg>
