<svg width="24" height="24" viewBox="0 0 24 24" fill="none" xmlns="http://www.w3.org/2000/svg">
<path d="M19.2 23.2H23.2V20.8C23.2 18.5909 21.4091 16.8 19.2 16.8M13.6 5.59692C13.6 8.24639 11.4512 10.3938 8.8 10.3938C6.1488 10.3938 4 8.24639 4 5.59692C4 2.94745 6.1488 0.800049 8.8 0.800049C11.4512 0.800049 13.6 2.94745 13.6 5.59692ZM16.8 23.1855H0.799999C0.799999 22.0494 0.799999 20.9686 0.799999 19.9899C0.799999 17.3389 2.94903 15.1907 5.6 15.1907H12C14.651 15.1907 16.8 17.3389 16.8 19.9899C16.8 20.9686 16.8 22.0494 16.8 23.1855ZM18.4 13.6C16.6327 13.6 15.2 12.1674 15.2 10.4C15.2 8.63274 16.6327 7.20005 18.4 7.20005C20.1673 7.20005 21.6 8.63274 21.6 10.4C21.6 12.1674 20.1673 13.6 18.4 13.6Z" stroke="#8B8B8B" stroke-width="1.5" stroke-linecap="round"/>
</svg>
