<svg width="21" height="21" viewBox="0 0 21 21" fill="none" xmlns="http://www.w3.org/2000/svg">
<path d="M15.75 14.6562C15.61 14.6562 15.4788 14.6125 15.3563 14.525C15.0675 14.3062 15.0063 13.895 15.225 13.6062C16.5988 11.7775 16.5988 9.2225 15.225 7.39374C15.0063 7.10499 15.0675 6.69374 15.3563 6.47499C15.645 6.25624 16.0563 6.31749 16.275 6.60624C17.99 8.89875 17.99 12.1012 16.275 14.3937C16.1438 14.5687 15.9513 14.6562 15.75 14.6562Z" fill="white"/>
<path d="M17.3513 16.8437C17.2113 16.8437 17.08 16.8 16.9575 16.7125C16.6688 16.4937 16.6075 16.0825 16.8263 15.7937C19.1625 12.6787 19.1625 8.32124 16.8263 5.20624C16.6075 4.91749 16.6688 4.50624 16.9575 4.28749C17.2463 4.06874 17.6575 4.12999 17.8763 4.41874C20.5625 7.99749 20.5625 13.0025 17.8763 16.5812C17.7538 16.7562 17.5525 16.8437 17.3513 16.8437Z" fill="white"/>
<path d="M12.2675 3.3075C11.2875 2.765 10.0363 2.905 8.75875 3.70125L6.20375 5.3025C6.02875 5.4075 5.8275 5.46875 5.62625 5.46875H4.8125H4.375C2.2575 5.46875 1.09375 6.6325 1.09375 8.75V12.25C1.09375 14.3675 2.2575 15.5312 4.375 15.5312H4.8125H5.62625C5.8275 15.5312 6.02875 15.5925 6.20375 15.6975L8.75875 17.2988C9.52875 17.78 10.2812 18.0163 10.9812 18.0163C11.4362 18.0163 11.8738 17.9112 12.2675 17.6925C13.2388 17.15 13.7812 16.0213 13.7812 14.5163V6.48375C13.7812 4.97875 13.2388 3.85 12.2675 3.3075Z" fill="white"/>
</svg>
